<svg xmlns="http://www.w3.org/2000/svg" viewBox="0 0 1600 1000" role="img" aria-labelledby="title desc">
  <title id="title">Modern construction site placeholder</title>
  <desc id="desc">Abstract contractor scene with structural beams, tools and warm site lighting.</desc>
  <defs>
    <linearGradient id="sky" x1="0" y1="0" x2="1" y2="1">
      <stop offset="0" stop-color="#0B172A"/>
      <stop offset="0.55" stop-color="#1F2937"/>
      <stop offset="1" stop-color="#D89B22"/>
    </linearGradient>
    <linearGradient id="beam" x1="0" y1="0" x2="1" y2="0">
      <stop offset="0" stop-color="#F2C14E"/>
      <stop offset="1" stop-color="#D89B22"/>
    </linearGradient>
  </defs>
  <rect width="1600" height="1000" fill="url(#sky)"/>
  <path d="M0 760 1600 520v480H0z" fill="#111827" opacity=".86"/>
  <path d="M160 250h1180v54H160zM310 304h56v420h-56zM1180 304h56v420h-56z" fill="url(#beam)"/>
  <path d="M470 330h80v330h-80zM890 330h80v330h-80z" fill="#F7F4EE" opacity=".22"/>
  <path d="M140 735h1280" stroke="#F2C14E" stroke-width="10" stroke-linecap="round"/>
  <circle cx="1170" cy="640" r="72" fill="#D89B22"/>
  <circle cx="1170" cy="640" r="38" fill="#0B172A"/>
  <path d="M210 650h240l70 85H180z" fill="#F7F4EE" opacity=".16"/>
  <path d="M610 705h320" stroke="#F7F4EE" stroke-width="18" stroke-linecap="round" opacity=".35"/>
  <path d="M680 620 820 510l140 110" stroke="#F2C14E" stroke-width="18" fill="none" stroke-linecap="round" stroke-linejoin="round"/>
</svg>
